<svg version="1.0" xmlns="http://www.w3.org/2000/svg" width="1209.333" height="738.667" viewBox="0 0 907 554"><g fill="#DC143C"><path d="M0 277v277h907V0H0v277zm721.3-114.4c52.2 7.1 92.3 39.3 97.8 78.5 5.1 36.7-23.4 73-69.3 88.4-18.6 6.2-27.1 7.6-49.3 8.2-17.6.5-21.6.3-33-1.7-41.9-7.1-75.9-28.9-89.5-57.5-6.4-13.5-8.2-31.6-4.6-45.5 10.2-38.5 55.2-68.1 109.5-71.9 12.6-.9 23.8-.5 38.4 1.5zM135 185.4c0 2.4-2.1 3.5-6.5 3.6-5.3.1-5 1.2 4.7 18.8 5.1 9.5 9.6 17.2 9.9 17.2.3 0 4.6-7.8 9.6-17.2 9.4-17.8 9.6-18.8 4.2-18.8-3.4 0-6.4-2.3-5.6-4.4.6-1.4 2.6-1.6 15.7-1.6h15v2.5c0 1.8-.6 2.6-2.5 3-1.4.3-3.5.7-4.7 1-1.8.3-4.2 4-10.2 15.2-14.5 27-27.7 50.7-30.6 54.8-7.7 11-16.7 14.7-28.2 11.4-3.4-.9-3.8-1.3-3.8-4.3 0-1.8-.3-6.1-.6-9.5-.7-6.1-.7-6.1 1.9-6.1 2.2 0 3.1.9 4.9 4.7 2.9 6 6.2 7.3 11.5 4.6 4.5-2.2 11.6-11.8 11-14.9-.2-1.1-7.3-14-15.8-28.7C100 191 99.4 190 96 189.4c-6.3-1.1-7-1.5-7-4V183h46v2.4zm130.5.6c0 2.2-.6 2.6-5.5 3.5l-5.5 1-.3 36.7c-.3 41.1-1.1 37 7.6 38.3 3.6.6 4.2 1 4.2 3.1v2.4h-44v-2.4c0-2.2.6-2.5 5.3-3.3l5.2-.8.3-37.2.2-37.1-5.1-.7c-5.1-.7-6.6-2.1-5.5-5 .5-1.3 3.5-1.5 21.8-1.3l21.3.3v2.5zm59 25.3c5.4 2.4 8.3 5.4 9.5 9.6 2 7.2-1.8 13.7-9.5 16.4l-4 1.4 4.1.7c5 .9 9.7 3.7 12 7.2 2.2 3.3 2.2 10.9.1 15.1-4 7.6-11.5 9.3-40.9 9.3-22.3 0-22.8 0-22.8-2.1 0-1.3 1-2.3 3-3l3-1.1v-49.6l-3-1.1c-2.1-.7-3-1.7-3-3.1 0-2.2 0-2.2 23.8-1.8 19.9.3 24.3.7 27.7 2.1zm69.1.4c7.6 4 7.8 4.8 8.4 30.8l.5 22.9 2.5.6c1.8.4 2.5 1.3 2.5 3 0 2.5-.1 2.5-10.5 2.8-9.7.3-10.6.1-12.2-1.9l-1.8-2.1-4.7 2.3c-6.6 3.1-17.1 3.2-22.9.1-10.2-5.3-11.3-24.3-1.8-30.9 4.6-3.2 6.3-3.6 17.9-4.2l11-.6.3-5.5c.5-11.6-5.1-16-15.7-12.3-4.7 1.5-5.6 2.3-6.6 5.3-.9 2.7-1.7 3.5-3.6 3.5-2.3 0-2.4-.4-2.7-6.4-.2-3.5.1-6.8.6-7.3 1.7-1.7 10.6-2.7 22.7-2.4 10.1.1 12.7.5 16.1 2.3zm51.4-.2c0 2-.6 2.7-3 3.1l-3 .6V236h19v-20.8l-3.1-.7c-2.4-.5-2.9-1.1-2.7-2.8.3-2.1.8-2.2 16.1-2.5l15.7-.3v2.6c0 2-.6 2.7-3 3.1l-3 .6V265l3 .6c2.3.5 3 1.2 3 3v2.4h-16c-15.5 0-16-.1-16-2.1 0-1.3 1-2.3 3-3l3-1.1V243h-19v22l3 .6c2.3.5 3 1.2 3 3v2.4h-16.1c-15.9 0-16 0-15.7-2.2.2-1.5 1.3-2.4 3.6-3l3.2-.9-.2-24.6-.3-24.7-3.2-1c-3.1-.8-4.3-3.2-2.6-4.9.3-.4 7.5-.7 16-.7H445v2.5zm89.6-1c6 1.8 10.2 5.9 11.5 11.1.4 2.2.9 12.8.9 23.7v19.8l3.1 1.1c2.3.8 2.9 1.6 2.7 3.2-.3 1.9-1 2.1-9.8 2.4-10.8.3-14-.2-14-2.3 0-2-1.3-1.9-6.3.7-5.7 3-16.6 3.1-22.1.3-5.5-2.8-7.8-6.4-8.4-12.9-.6-7.5.4-12 3.5-15.6 4.3-5.2 7.7-6.3 20.1-6.8l11.2-.5v-7.1c0-4.8-.5-7.9-1.5-9.3-2.2-3.2-7.4-3.8-13.6-1.8-4.5 1.5-5.4 2.3-6.7 5.6-1.1 3-2.1 3.9-3.9 3.9-2.2 0-2.3-.3-2.3-7.4v-7.5l4.8-.6c2.6-.4 5.2-.8 5.7-1 3-1 20.7-.3 25.1 1zM322 330.5c0 .8 1.6 1.9 3.8 2.5 6.6 1.7 9.4 6.9 7.2 13.5-1.2 3.7-5.1 6.5-9 6.5-1.3 0-2 .7-2 2 0 1.1-.7 2-1.5 2s-1.5-.8-1.5-1.9c0-1.4-1-2-3.9-2.5-11.5-1.8-10.5-19.6 1-19.6 1.2 0 2.3-.8 2.6-2 .6-2.3 3.3-2.7 3.3-.5zm-107 2c0 1.2-1.3 1.5-5.5 1.5H204v3.5c0 3.5 0 3.5 4.5 3.5 3.3 0 4.5.4 4.5 1.5s-1.2 1.5-4.5 1.5H204v9h5.5c4.2 0 5.5.3 5.5 1.5s-1.5 1.5-7.4 1.5h-7.3l-.2-12.5-.1-12.5h7.5c6 0 7.5.3 7.5 1.5zm16.5 2.9c-.4 2.5-.4 4.9-.1 5.5.4.6 2.8-1.3 5.4-4.4 2.6-2.9 5.5-5.4 6.5-5.4 2.5-.1 2.2.7-2.8 6-2.5 2.6-4.5 5.2-4.5 5.7 0 .4 2.3 3.3 5 6.4 2.8 3.1 5 5.9 5 6.2 0 .3-.9.6-1.9.6-1.2 0-3.9-2.3-6.7-5.8-2.5-3.1-5-5.9-5.5-6-.5-.2-.9 2.4-.9 5.7 0 4.8-.3 6.1-1.5 6.1-1.3 0-1.5-2.1-1.5-12.5 0-12 .1-12.5 2.1-12.5 1.8 0 2 .4 1.4 4.4zm43.1-2c2.4 2 2.8 3.2 3.2 8.9.4 6.5.4 6.7-3.1 10.2-3 3-4.2 3.5-8.2 3.5-3.8 0-5.2-.5-7.4-2.8-5.5-5.4-4.8-16.6 1.2-20.2 4.5-2.8 10.9-2.6 14.3.4zm86.2-1.2c-.3.8-2.7 1.4-6.1 1.6l-5.7.3v3.4c0 3.5 0 3.5 4.5 3.5 3.3 0 4.5.4 4.5 1.5s-1.2 1.5-4.5 1.5H349v9h6.1c4.4 0 6 .3 5.7 1.2-.3.9-3 1.4-7.6 1.6l-7.2.3V331h7.6c5.6 0 7.5.3 7.2 1.2zm26 .4c1.6 1.1 2.2 2.5 2.2 5.5 0 5.3-3.4 8.9-8.5 8.9-3.5 0-3.5 0-3.5 4.5 0 3.8-.3 4.5-2 4.5-1.9 0-2-.7-2-12.5V331h5.8c3.6 0 6.6.6 8 1.6zm22.7 6.4c1.6 4.4 3.2 8 3.6 8 .4 0 2.1-3.6 3.9-8 2.4-5.9 3.7-8 5-8 2.1 0 2.6 1.8 3.5 12.5.3 3.8.8 8.2 1.1 9.7.5 2.3.2 2.8-1.4 2.8-1.7 0-2-1-2.6-9-.4-5-1.1-8.8-1.6-8.5-.5.3-2 3.7-3.5 7.5-3.6 9.5-5.3 9.4-9.1-.5-1.6-4.1-3.2-7.5-3.5-7.5-.4 0-1 4-1.4 9-.5 6.7-1.1 9-2.1 9-1.7 0-1.7-1.9-.3-15 1.1-9.1 1.4-10 3.3-10 1.7 0 2.6 1.5 5.1 8zm45.2 4.7c3.8 11.2 4 12.3 2.3 12.3-1.2 0-2.2-1.2-3-3.5-1.1-3.4-1.3-3.5-6.5-3.5-5.1 0-5.4.1-6 3.1-.6 2.8-2.9 4.8-4.1 3.7-.3-.3 1.2-5 3.2-10.4 2-5.5 4.1-10.9 4.5-12.2.7-1.7 1.5-2.2 3.2-2 1.9.3 2.8 2.1 6.4 12.5zM298 345.5c0 .8-.8 1.5-1.9 1.5-1 0-3.3.3-5 .6-2.4.5-3.1.3-3.1-.9 0-.9 1.1-1.7 2.8-2 5.7-.9 7.2-.7 7.2.8z"/><path d="M679.5 164.1c-52.9 5-96.1 35.2-104 72.7-3 14.5-1.2 27.2 6 41.9 3.6 7.3 6.4 11.2 13.2 18.3 43.1 45.4 130.8 51.8 186 13.8 9.5-6.6 22.1-19.8 26.8-28.2 6.8-12.1 8.8-19.5 8.8-32.6.1-12.9-1.3-19.1-6.8-30-4.2-8.3-6.9-11.9-15.2-20.3-19.6-19.8-48.9-32.2-84.2-35.7-11.6-1.1-17.6-1.1-30.6.1zm31.6 2c45.5 4.6 82.2 25.6 97 55.4 17.7 35.8.1 74.8-43.6 96.8-23.2 11.6-54.4 17.3-81.7 14.8-22.9-2.1-37.4-5.9-55.3-14.7-51.6-25.1-66.5-73.5-34.7-111.9 23.7-28.5 72.3-45.1 118.3-40.4z"/><path d="M677.5 171.7c-17 2.2-34.4 7.2-47.8 13.9-8.9 4.4-19.7 11.5-23 15.1-1.6 1.9-1.6 2 .7 3.1 1.5.7 3.6.8 5.4.3 1.9-.6 4-.4 6.3.6 1.9.8 9.4 1.8 17.3 2.3 7.6.5 14 1.1 14.2 1.3.2.2-4.9.9-11.4 1.6-7.9.9-13.6 2.1-17.6 3.8-6.4 2.7-9.7 2.7-15.7 0-3.5-1.6-3.8-1.5-9 1.1-6.1 3.1-9.4 7.9-12.9 19.1-2.3 7.3-2.6 22.9-.6 29.6 1 3.6 1.5 4 4.6 4.2 3.3.2 3.3.2 1-.8-1.3-.5-2.8-1.5-3.2-2.2-1-1.5-.1-15.2 1.1-17.5.5-.9 1.7-5 2.7-9.1 1.3-5.5 2-6.9 2.5-5.5 1.2 3.2 4.8 16.6 5.5 20.9l.8 4 .7-3c3.3-12.9 5.8-20.8 6.3-19.5 3 8.9 5 17.9 5.3 24.7.4 8.1.4 8.3-2.1 9.3-1.4.5-2.6 1.7-2.6 2.6 0 1.1.5 1.4 1.6 1 4-1.5 6.5-1.7 7.8-.6 1.1.8 2 .8 3.5.1 3-1.7 5.9-1.3 8.1.9 1.1 1.1 3.1 2 4.5 2 1.3 0 4 .9 5.8 1.9 4.2 2.3 9 3 10.8 1.4.8-.6 2.6-1.4 4.2-1.8 1.5-.4 2.7-1.4 2.7-2.4.1-.9 1.1-5.2 2.4-9.6l2.4-7.9 1 4.4c.6 2.5 1.9 7.6 2.9 11.5l1.7 7 .8-7.8c.4-4.3 1.6-10.8 2.7-14.5 1.1-3.7 2.3-8.1 2.7-9.7l.7-3 1 3.5c.5 1.9 1.7 6.2 2.8 9.6 1 3.3 2.1 8 2.5 10.2.5 3.4 1.1 4.2 2.8 4.2 1.2 0 2.9-.9 3.9-2.1 1.2-1.4 2.4-1.8 3.8-1.4 1.4.5 2.5.1 3.3-1.1.8-1.1 2.1-1.5 3.4-1.2 1.2.4 2.6 0 3.3-.8.6-.8 2.7-1.4 4.6-1.4 3.1 0 3.4-.2 3.3-3.3-.1-1.7.2-4.4.6-6 .5-2.1.3-2.6-.8-2.2-.7.3-2.2-.1-3.3-.9-1.9-1.4-1.9-1.6 1.4-5 3.9-4.1 3.8-4.2-1.3-2.1-4.3 1.8-5.6 1.3-5.6-2.1 0-2.2.4-2.4 5.3-2.4l5.2-.1-4.7-2.1c-5.3-2.3-5.4-2.5-3.4-5.4 1.4-1.9 1.5-1.8 4.3.8 3.9 3.7 4.6 3.5 2.8-.8-2.1-5-1.9-5.4 1.4-5.4 2.8 0 3 .3 3.3 4.2l.4 4.3 2-4.3 2-4.4 2.4 2 2.5 2-2.7 2.9c-3.8 3.9-3.5 4.4 1.2 2.6 4.5-1.8 4.7-1.8 5.2 1.7.3 2.3 0 2.5-4.2 2.8l-4.5.4 4.3 2.2 4.3 2.2-1.8 2.3-1.9 2.3-3.4-2.8-3.4-2.9.8 2.5c.4 1.4.9 7.2 1.1 12.9.2 7.4.7 10.6 1.6 11.2 1 .6 1.5.2 1.7-1.3.2-1.1-.2-2.4-1-2.9-1.5-1-2.3-.1 10.7-11.1 11.9-10 12.3-10.2 13.8-9.1.7.6 6.6 3.1 13.2 5.8 6.6 2.7 12.6 5.3 13.2 5.8 1.4 1 1.3 1.3 3.9-8.7 1.3-5.1 2-6.4 2.5-5 2.3 5.9 3.9 12.8 3.9 16.3 0 2.3.4 4.1.8 4.1s2.6-1.8 4.7-4l3.9-4 3.3 3.2c3.1 3 3.3 3.1 3.3 1 0-1.2.4-3 .9-4 .9-1.7 2.4-6.8 3.7-12.7.8-3.6 1-3.1 4.6 9.2 2.7 9.7 3.6 8.8 3.7-3.7.1-9.7-1.7-17.9-5.7-25.9-2.4-4.6-3.4-5.6-6.8-6.6-2.1-.7-5.5-2.1-7.4-3.2-1.9-1.2-5.3-2.4-7.4-2.8-2.2-.3-6.4-2-9.4-3.6-6.4-3.4-8.3-3.5-13.7-.9-6.8 3.3-12.2 2.6-22.2-2.6-8.7-4.5-9-4.6-24.2-6-22.1-2-21.5-2.6 4-4.2 14.6-.9 16.2-1.2 22.8-4.2l7.2-3.3 5.1 1.6c5 1.6 5.1 1.6 7.9-.8l2.8-2.3-8.9-3.6c-18.6-7.4-36.7-10.7-58.2-10.5-7.9.1-15.6.4-17.3.6z"/><path d="M710.2 250.7c-.1 2.9-.2 5.6-.2 6-.1.5.8.9 2 1.1 1.5.3 2-.2 2-1.7 0-1.2-.6-2.1-1.4-2.1-1 0-1.6-1.4-1.9-4.3-.3-4-.4-4-.5 1zm21.8 5.4c-4.7 3.9-8.9 7.5-9.4 8-.6.5 6.7.9 18.2.9 11.1 0 19.2-.4 19.2-.9 0-1.5-16.3-15.1-18-15.1-.8 0-5.3 3.2-10 7.1zm-22.4 4.1c-1.3 4.3-1.2 5.8.5 7.4 1 .9 1.9 2.3 1.9 3.1 0 .7.7 1.3 1.5 1.3 1.6 0 2.1-6.2.9-10.8-.7-2.4-4.2-3.1-4.8-1zm75.1 3.6c-5 5.1-3.8 6.2 7.2 6.2h8.5l-4.9-5c-2.7-2.8-5.4-5-6-5-.6 0-2.8 1.7-4.8 3.8zm-189.4 2.4c-2.5 1.2-3 4-1 5.6.6.5 3.1 1.3 5.5 1.7 3.8.6 4.2.5 4.2-1.4 0-1.4-.9-2.5-2.5-3.1-1.4-.5-2.5-1.6-2.5-2.5 0-1.7-.6-1.8-3.7-.3zm137.5.5l-10.8.4v18.1l4.3-.7c2.3-.4 4.4-.9 4.6-1.1.1-.1.3-2.8.2-5.8V272H748v12h12v-18l-8.2.2c-4.6.1-13.1.4-19 .5zm48.2 12.2c0 6 .2 6.9 2 7.4 1.8.4 2 0 2-3.4v-4l5.3.3c5.1.3 5.2.4 5.7 3.8l.5 3.4 1.8-2.6c1-1.6 1.7-4.6 1.7-7.3V272h-19v6.9zm-16.4-5.2c-1.3 1.3-.6 6.3.9 6.3 1 0 1.5-1 1.5-2.9 0-3-1.2-4.6-2.4-3.4zm4.1 1c-1.3 1.3-.7 5.3.8 5.3 1 0 1.5-1 1.5-3 0-2.9-.9-3.8-2.3-2.3zm3.3 2.7c0 1.4.5 2.8 1 3.1.6.4 1-.7 1-2.4s-.4-3.1-1-3.1c-.5 0-1 1.1-1 2.4zm3.7-1.7c-1.1 1-.8 5.3.3 5.3.6 0 1-1.4 1-3 0-3.1-.2-3.5-1.3-2.3zm-186.7.9c0 2 7.7 12.2 13.4 18 3.4 3.3 8.5 7.7 11.5 9.7 4.5 3 5.8 3.4 7.4 2.5 1.2-.6 9.3-3.4 18.1-6.3l16-5.2-3-1.6c-12.5-6.5-63.4-20.2-63.4-17.1zm122.7 2.4c-.3 1.2-1.4 2-2.6 2-1.2 0-2.1.4-2.1 1 0 .5 1.1 1 2.5 1s2.5.4 2.5 1c0 .5.5 1 1 1 .6 0 1-.6 1-1.4 0-.8.6-1.7 1.3-2 1-.5 1-.7 0-1.2-.7-.3-1.3-1.2-1.3-2 0-2.1-1.7-1.7-2.3.6zm-9.7 1c0 1.6-.7 2-3.5 2-1.9 0-3.5-.5-3.5-1 0-.6-.4-1-1-1-.5 0-1 .6-1 1.4 0 .7-1.4 1.6-3.1 2-4.4.9-4.7.8-5.2-1.2-.3-1.5-.5-1.5-1.2.3-.5 1.1-1.6 2.5-2.4 3.2-1.4 1.1-1.4 1.2.2 1.3.9 0 1.7.4 1.7 1 0 .5.5 1 1 1 .6 0 1-.6 1-1.4 0-1.8 7.1-3 8.2-1.3.6.9 1.1.8 1.9-.6 1.1-1.8 6.9-2.4 6.9-.7 0 1.8 1.8 1 2.3-1 .6-2.4-.2-6-1.4-6-.5 0-.9.9-.9 2zm38.3 13c7.7 5.1 15.6 13.1 18.3 18.2.8 1.5 1.8 2.8 2.1 2.8.4 0 3.9-1.9 7.7-4.2 10.7-6.2 23.8-16.9 22.4-18.3-1-1-32.8-3.5-45-3.5h-13l7.5 5zm-33.8-3.3c-4.9.4-9 2.3-4.9 2.3 4.6 0 25.4 8.6 25.4 10.4 0 .2-3.1-.4-6.9-1.5-11.8-3-26.3-4.2-42.6-3.5-22.9 1-25.1 2.1-5.5 2.8 16.7.6 26.1 2.1 38 6 6.1 1.9 18 7.4 18 8.2 0 .2-2.9-.5-6.5-1.5-14.5-4-27.1-5.3-49-5.2-11.5.1-23.5.6-26.5 1.1-4.8.8-3.6 1 9 1.1 15.9.2 31.5 2 42.9 5.2 7.4 2 22.5 7.8 21.9 8.4-.2.2-3-.3-6.3-1-17-4-44.6-6.2-62.2-5-12.2.8-11.5 1.8 2 2.9 10.6.9 23.5 2.9 29.7 4.7l4.5 1.3-4 .7c-2.2.4 4.3.6 14.5.4 10.2-.2 21.6-.9 25.3-1.6 8.6-1.5 10.1-3.7 10.2-15 0-6.7-.3-8-2.9-11.7-1.6-2.3-4.9-5.5-7.4-7.2-4.6-3.1-5.2-3.1-16.7-2.3z"/><path d="M732.8 295.7c5.1 6.5 6.5 14.2 4.1 22.6-.6 2.2-.8 4.1-.6 4.3.6.7 16.3-4.6 18.4-6.1 1.5-1.1 1.5-1.5-.5-4.7-2.8-4.5-11.7-12.9-17.8-16.8-6.3-4-7.1-3.8-3.6.7zm-98.5 15c.9.2 2.5.2 3.5 0 .9-.3.1-.5-1.8-.5-1.9 0-2.7.2-1.7.5zm-335.5-95.1c-.5.4-.8 5.2-.8 10.6v9.8h5.4c7.9 0 11-2.8 11-9.9 0-6.8-2.9-9.9-9.9-10.7-2.8-.3-5.3-.3-5.7.2zm.2 37.9v11.7l6.5-.4c10.6-.7 15.2-6.1 12.6-14.8-1.5-5.2-4.3-6.9-12.5-7.7l-6.6-.6v11.8zm72.3-11.1c-2.3 1.1-3.4 2.4-4.2 5.3-3 10.8 1 18.2 9.1 16.6 6.8-1.3 6.9-1.4 6.6-12.6l-.3-10.2-4-.2c-2.2-.2-5.4.4-7.2 1.1zm144.9.1c-3.7 1.6-5.2 4.8-5.2 11 0 9.3 3.5 12.4 11.6 10.4l4.4-1.1V241h-3.7c-2.1.1-5.3.7-7.1 1.5zM314.3 336c-2.4 1-4.3 3.9-4.3 6.8 0 3 3.8 7.2 6.6 7.2 2.4 0 2.5-.1 2.2-7.2-.3-7.4-.8-8.2-4.5-6.8zm7.7 6.5c0 6.5.2 7.5 1.8 7.5 3.6 0 6.2-2.9 6.2-6.8 0-4.3-.7-5.5-3.7-7.1-3.9-2-4.3-1.4-4.3 6.4zm-60.6-6.4c-1.4 1.5-1.9 3.6-1.9 7.4 0 6.8 2.2 9.5 7.6 9.5 5 0 6.9-2.7 6.9-9.7 0-4-.5-5.8-2-7.3-2.7-2.7-8.1-2.6-10.6.1zm115.6 2.8c0 4.9.1 5.1 2.9 5.1 3.7 0 5.3-2 4.9-6.2-.3-3-.6-3.3-4-3.6l-3.8-.3v5zm69.1.8c-.8 2.1-1.6 4.4-1.8 5-.4.9.7 1.3 3.5 1.3h4l-1.6-5c-.9-2.8-1.9-5-2.2-5-.3 0-1.2 1.7-1.9 3.7z"/></g></svg>